# xmcd
#
# Track frame offsets:
#	150
#	28993
#	44480
#	81140
#	94375
#
# Disc length: 1555 seconds
#
# Revision: 6
# Processed by: cddbd v1.5.2PL0 Copyright (c) Steve Scherf et al.
# Submitted via: EasyCDDAExtractor 15.3.0.1
#
DISCID=3e061105
DTITLE=Britney Spears - Greatest Hits - My Prerogative - CD 2
DYEAR=2004
DGENRE=Pop
TTITLE0=Toxic (Armand Van Helden Remix Edit)
TTITLE1=Everytime (Hi-Bias Radio Remix)
TTITLE2=Breathe On Me (Jacques Lu Cont Mix)
TTITLE3=Outrageous (Junkie XL's Dancehall Mix)
TTITLE4=Chris Cox Megamix
EXTD=
EXTT0=
EXTT1=
EXTT2=
EXTT3=
EXTT4=
PLAYORDER=
